#!OML:ASF X:\für Bonn\!DataBase\2005_08_11_Bastian_Final\c3d\Bastian.ASF
:FULLY-SPECIFIED
:DEGREES
143
root 6.51947 11.6021 -3.09822 813.522 78.0514 -269.258
lowerback 68.6352 -13.3783 15.3799
upperback 13.8925 2.00794 6.84743
thorax -4.60109 2.55539 1.02476
lowerneck -0.870526 -8.89844 5.26505
upperneck -32.3548 -10.3135 6.71398
head -10.1295 -5.99066 2.30423
rclavicle 1.90833e-014 1.17382e-013
rhumerus 31.4259 -11.7498 -44.7949
rradius 27.905
rwrist 12.4835
rhand -47.0356 4.21442
rfingers 7.12502
rthumb -19.7416 -24.8031
lclavicle 1.90833e-014 1.17382e-013
lhumerus 21.393 -28.9687 64.7962
lradius 61.6986
lwrist 15.1312
lhand -10.8642 -11.6279
lfingers 7.12502
lthumb 15.1513 17.7974
rfemur -78.3011 -12.6319 6.56332
rtibia 111.592
rfoot -26.6815 -3.17128
rtoes -17.4432
lfemur -67.2828 3.0431 -40.509
ltibia 107.384
lfoot -31.6847 -14.6104
ltoes 22.5746
144
root 6.53019 11.6588 -3.08945 813.901 78.0836 -269.171
lowerback 68.7707 -13.3936 15.4278
upperback 13.711 2.02876 6.78625
thorax -4.79259 2.54183 0.935114
lowerneck -0.837741 -8.81307 5.06534
upperneck -32.5136 -10.2454 6.50786
head -10.1932 -5.90373 2.26603
rclavicle 9.54166e-014 -2.27608e-014
rhumerus 31.4628 -11.7907 -44.975
rradius 27.6555
rwrist 12.5137
rhand -47.0701 4.45435
rfingers 7.12502
rthumb -19.7747 -24.5597
lclavicle 9.54166e-014 -2.27608e-014
lhumerus 21.3154 -29.1908 64.9627
lradius 61.4041
lwrist 14.976
lhand -10.8564 -11.5809
lfingers 7.12502
lthumb 15.1588 17.8439
rfemur -78.1678 -12.4887 6.60785
rtibia 111.126
rfoot -26.6559 -3.24164
rtoes -17.1606
lfemur -67.2208 2.9238 -40.3938
ltibia 106.889
lfoot -31.5596 -14.5514
ltoes 22.3233
145
root 6.54003 11.719 -3.07922 814.32 78.0862 -269.056
lowerback 68.8801 -13.3815 15.454
upperback 13.5311 2.05492 6.72484
thorax -4.98788 2.52942 0.84763
lowerneck -0.739132 -8.74525 4.96503
upperneck -32.7187 -10.2064 6.25264
head -10.2978 -5.83742 2.20423
rclavicle 2.22639e-014 1.0138e-014
rhumerus 31.5723 -11.9366 -45.2501
rradius 27.2729
rwrist 12.6359
rhand -47.1624 4.65366
rfingers 7.12502
rthumb -19.8634 -24.3513
lclavicle 2.22639e-014 1.0138e-014
lhumerus 21.1882 -29.3866 65.1821
lradius 61.0821
lwrist 14.8407
lhand -10.8267 -11.6164
lfingers 7.12502
lthumb 15.1875 17.8063
rfemur -78.0442 -12.3479 6.63998
rtibia 110.625
rfoot -26.5845 -3.37326
rtoes -17.1048
lfemur -67.1518 2.8045 -40.3151
ltibia 106.347
lfoot -31.4317 -14.4295
ltoes 21.7688
146
root 6.54861 11.783 -3.06865 814.789 78.0824 -268.878
lowerback 68.9792 -13.3562 15.4672
upperback 13.3682 2.08896 6.67961
thorax -5.16706 2.52104 0.779184
lowerneck -0.602612 -8.67666 4.83096
upperneck -32.9842 -10.1499 6.05083
head -10.4277 -5.76379 2.16948
rclavicle 6.36111e-015 -6.42074e-014
rhumerus 31.714 -12.0343 -45.4601
rradius 26.8451
rwrist 12.5814
rhand -47.2714 4.90545
rfingers 7.12502
rthumb -19.9682 -24.0886
lclavicle 6.36111e-015 -6.42074e-014
lhumerus 21.0475 -29.6066 65.343
lradius 60.8451
lwrist 14.7773
lhand -10.7989 -11.6108
lfingers 7.12502
lthumb 15.2143 17.8098
rfemur -77.8739 -12.2 6.65734
rtibia 110.094
rfoot -26.5165 -3.49954
rtoes -16.9158
lfemur -67.0474 2.66189 -40.2191
ltibia 105.765
lfoot -31.2595 -14.3519
ltoes 21.4114
147
root 6.55748 11.8508 -3.05844 815.192 78.0191 -268.749
lowerback 69.0727 -13.3189 15.4293
upperback 13.2255 2.09607 6.61046
thorax -5.32894 2.50504 0.711193
lowerneck -0.499999 -8.59924 4.78166
upperneck -33.2202 -10.0875 5.80831
head -10.5497 -5.69209 2.10291
rclavicle -1.08139e-013 1.3418e-014
rhumerus 31.8787 -12.1941 -45.7639
rradius 26.3708
rwrist 12.6565
rhand -47.3539 4.98623
rfingers 7.12502
rthumb -20.0475 -23.9995
lclavicle -1.08139e-013 1.3418e-014
lhumerus 20.9019 -29.8201 65.4412
lradius 60.6313
lwrist 14.7647
lhand -10.7708 -11.6514
lfingers 7.12502
lthumb 15.2413 17.7672
rfemur -77.6604 -12.0429 6.58258
rtibia 109.529
rfoot -26.4293 -3.58905
rtoes -16.7359
lfemur -66.8993 2.54114 -40.1923
ltibia 105.14
lfoot -31.0847 -14.2945
ltoes 21.0136
148
root 6.56799 11.9217 -3.04875 815.66 78.0094 -268.57
lowerback 69.1417 -13.281 15.4295
upperback 13.065 2.12563 6.57034
thorax -5.51005 2.49338 0.652468
lowerneck -0.378754 -8.53329 4.73446
upperneck -33.425 -10.0606 5.51536
head -10.6666 -5.63169 2.02021
rclavicle 9.54166e-014 -2.79292e-014
rhumerus 32.0944 -12.3137 -45.9994
rradius 25.7774
rwrist 12.7343
rhand -47.3342 4.98841
rfingers 7.12502
rthumb -20.0285 -23.9993
lclavicle 9.54166e-014 -2.79292e-014
lhumerus 20.6635 -30.0128 65.616
lradius 60.4433
lwrist 14.6685
lhand -10.7308 -11.6062
lfingers 7.12502
lthumb 15.2799 17.8094
rfemur -77.4342 -11.8832 6.57864
rtibia 108.931
rfoot -26.3246 -3.72464
rtoes -16.6764
lfemur -66.7428 2.40427 -40.1141
ltibia 104.481
lfoot -30.9093 -14.1623
ltoes 20.4488
149
root 6.57843 11.9962 -3.03847 815.961 78.0049 -268.563
lowerback 69.2187 -13.2214 15.4193
upperback 12.8986 2.16219 6.49853
thorax -5.69732 2.48583 0.557614
lowerneck -0.242733 -8.47245 4.67906
upperneck -33.6157 -10.0217 5.29107
head -10.7765 -5.57239 1.96153
rclavicle -5.08889e-014 4.33351e-014
rhumerus 32.3079 -12.5116 -46.3742
rradius 25.0935
rwrist 12.9818
rhand -47.342 5.00676
rfingers 7.12502
rthumb -20.036 -23.9802
lclavicle -5.08889e-014 4.33351e-014
lhumerus 20.4244 -30.1939 65.7598
lradius 60.2273
lwrist 14.6345
lhand -10.741 -11.7159
lfingers 7.12502
lthumb 15.27 17.7005
rfemur -77.1963 -11.6744 6.58888
rtibia 108.3
rfoot -26.231 -3.89057
rtoes -16.7145
lfemur -66.5792 2.32079 -40.0225
ltibia 103.788
lfoot -30.7174 -14.0877
ltoes 20.0424
150
root 6.58992 12.0741 -3.02782 816.269 77.9983 -268.505
lowerback 69.3197 -13.1715 15.3963
upperback 12.7361 2.19261 6.43765
thorax -5.88071 2.47599 0.484192
lowerneck -0.0945231 -8.42165 4.57698
upperneck -33.8077 -9.99768 5.08867
head -10.8848 -5.51645 1.91941
rclavicle -1.90833e-014 -1.50281e-013
rhumerus 32.4867 -12.5105 -46.5582
rradius 24.4108
rwrist 12.9386
rhand -47.3502 4.92293
rfingers 7.12502
rthumb -20.0439 -24.0632
lclavicle -1.90833e-014 -1.50281e-013
lhumerus 20.15 -30.3686 65.9237
lradius 60.0559
lwrist 14.5983
lhand -10.8282 -11.7506
lfingers 7.12502
lthumb 15.1859 17.6722
rfemur -76.8815 -11.4606 6.57721
rtibia 107.634
rfoot -26.109 -4.05445
rtoes -16.6497
lfemur -66.3287 2.23345 -39.9205
ltibia 103.059
lfoot -30.5212 -14.0062
ltoes 19.5214
151
root 6.60246 12.1541 -3.01751 816.553 77.998 -268.522
lowerback 69.3628 -13.0898 15.3302
upperback 12.5899 2.21031 6.39618
thorax -6.05715 2.45689 0.448464
lowerneck -0.0089834 -8.35491 4.37403
upperneck -33.9 -9.95188 4.93249
head -10.9315 -5.44337 1.89866
rclavicle -3.49861e-014 -5.52621e-014
rhumerus 32.7871 -12.5072 -46.8186
rradius 23.6562
rwrist 12.9706
rhand -47.2768 4.75303
rfingers 7.12502
rthumb -19.9734 -24.2405
lclavicle -3.49861e-014 -5.52621e-014
lhumerus 19.8268 -30.451 66.185
lradius 59.8193
lwrist 14.5187
lhand -10.9102 -11.8405
lfingers 7.12502
lthumb 15.107 17.5882
rfemur -76.612 -11.2372 6.575
rtibia 106.941
rfoot -25.9853 -4.21618
rtoes -16.5897
lfemur -66.1292 2.14482 -39.8305
ltibia 102.302
lfoot -30.2929 -13.9092
ltoes 19.084
152
root 6.61618 12.238 -3.00705 816.767 77.9998 -268.533
lowerback 69.4733 -13.0568 15.3012
upperback 12.4234 2.21227 6.29615
thorax -6.24249 2.43831 0.344936
lowerneck -0.202108 -8.33745 4.29577
upperneck -33.736 -10.011 4.69753
head -10.8381 -5.42928 1.81288
rclavicle 1.27222e-013 1.09332e-014
rhumerus 33.1047 -12.6051 -47.2114
rradius 22.8096
rwrist 13.1425
rhand -47.1047 4.59088
rfingers 7.12502
rthumb -19.8079 -24.4198
lclavicle 1.27222e-013 1.09332e-014
lhumerus 19.5241 -30.6015 66.3579
lradius 59.6008
lwrist 14.563
lhand -10.9413 -11.8441
lfingers 7.12502
lthumb 15.077 17.5868
rfemur -76.2229 -11.0024 6.57203
rtibia 106.216
rfoot -25.8387 -4.4153
rtoes -16.6761
lfemur -65.8021 2.08492 -39.7194
ltibia 101.509
lfoot -30.0883 -13.8294
ltoes 18.5381
153
root 6.63167 12.3247 -2.99672 817.017 78.0027 -268.563
lowerback 69.5142 -12.9928 15.2701
upperback 12.2572 2.225 6.21775
thorax -6.43494 2.41954 0.25702
lowerneck -0.510044 -8.31634 4.11446
upperneck -33.5276 -10.0573 4.51945
head -10.6949 -5.40266 1.75404
rclavicle -4.77083e-014 -1.62258e-013
rhumerus 33.4283 -12.6274 -47.5359
rradius 21.9332
rwrist 13.2391
rhand -46.941 4.37922
rfingers 7.12502
rthumb -19.6506 -24.6476
lclavicle -4.77083e-014 -1.62258e-013
lhumerus 19.1678 -30.7367 66.6118
lradius 59.3644
lwrist 14.5328
lhand -10.992 -11.919
lfingers 7.12502
lthumb 15.0282 17.5156
rfemur -75.875 -10.7572 6.55603
rtibia 105.474
rfoot -25.7051 -4.56679
rtoes -16.4813
lfemur -65.5101 1.99511 -39.6159
ltibia 100.672
lfoot -29.862 -13.7192
ltoes 18.1722
154
root 6.64773 12.4132 -2.98604 817.3 78.0365 -268.51
lowerback 69.6277 -12.9737 15.2675
upperback 12.0519 2.22615 6.11107
thorax -6.66153 2.39588 0.137123
lowerneck -0.738472 -8.25601 3.83404
upperneck -33.438 -10.0015 4.46678
head -10.5993 -5.32726 1.7558
rclavicle 6.04305e-014 -6.49032e-014
rhumerus 33.7629 -12.6819 -47.9736
rradius 21.0391
rwrist 13.4602
rhand -46.7338 4.10358
rfingers 7.12502
rthumb -19.4514 -24.9435
lclavicle 6.04305e-014 -6.49032e-014
lhumerus 18.7572 -30.8294 66.9201
lradius 59.1027
lwrist 14.3718
lhand -11.058 -11.9686
lfingers 7.12502
lthumb 14.9646 17.4707
rfemur -75.4431 -10.5138 6.56261
rtibia 104.695
rfoot -25.5909 -4.71592
rtoes -16.3755
lfemur -65.1603 1.93151 -39.4676
ltibia 99.8168
lfoot -29.6097 -13.6689
ltoes 17.7216
155
root 6.66646 12.5047 -2.97531 817.533 77.9234 -268.572
lowerback 69.6526 -12.9086 15.181
upperback 11.8514 2.18307 5.98403
thorax -6.90056 2.35135 0.0333872
lowerneck -0.9224 -8.21494 3.6187
upperneck -33.3529 -9.98329 4.36477
head -10.5221 -5.27296 1.73653
rclavicle -3.81667e-014 5.9859e-014
rhumerus 34.06 -12.6144 -48.343
rradius 20.1557
rwrist 13.5476
rhand -46.5162 3.80942
rfingers 7.12502
rthumb -19.2421 -25.2586
lclavicle -3.81667e-014 5.9859e-014
lhumerus 18.3224 -30.8689 67.275
lradius 58.8445
lwrist 14.2099
lhand -11.019 -11.9453
lfingers 7.12502
lthumb 15.0022 17.4912
rfemur -75.0694 -10.3123 6.41713
rtibia 103.907
rfoot -25.4501 -4.85743
rtoes -16.3492
lfemur -64.8133 1.81358 -39.4889
ltibia 98.9028
lfoot -29.3823 -13.5208
ltoes 17.1728
